<svg xmlns="http://www.w3.org/2000/svg" version="1.1" xmlns:xlink="http://www.w3.org/1999/xlink" xmlns:svgjs="http://svgjs.dev/svgjs" width="1000" height="292" viewBox="0 0 1000 292"><g transform="matrix(1,0,0,1,-0.6060606060606233,0.3293662298469826)"><svg viewBox="0 0 396 116" data-background-color="#ffffff" preserveAspectRatio="xMidYMid meet" height="292" width="1000" xmlns="http://www.w3.org/2000/svg" xmlns:xlink="http://www.w3.org/1999/xlink"><g id="tight-bounds" transform="matrix(1,0,0,1,0.2400000000000091,-0.13084411870633517)"><svg viewBox="0 0 395.52 116.26162722398033" height="116.26162722398033" width="395.52"><g><svg viewBox="0 0 609.3797627927568 179.12490599628097" height="116.26162722398033" width="395.52"><g transform="matrix(1,0,0,1,213.85976279275673,52.778899400489976)"><svg viewBox="0 0 395.52 73.56710719530102" height="73.56710719530102" width="395.52"><g id="textblocktransform"><svg viewBox="0 0 395.52 73.56710719530102" height="73.56710719530102" width="395.52" id="textblock"><g><svg viewBox="0 0 395.52 73.56710719530102" height="73.56710719530102" width="395.52"><g transform="matrix(1,0,0,1,0,0)"><svg width="395.52" viewBox="2.4 -37.5 204.28 38" height="73.56710719530102" data-palette-color="#ffffff"><path d="M7.4 0L2.4 0 7.1-35 11.15-35 20.35-17.65 29.45-35 33.55-35 38.2 0 33.2 0 29.65-28.55 30.9-28.35 20.4-8.3 9.7-28.35 10.95-28.55 7.4 0ZM47.65 0L43.15 0 43.15-24.5 47.65-24.5 47.65 0ZM47.65-30L43.15-30 43.15-35 47.65-35 47.65-30ZM59.45 0.5L59.45 0.5Q57.17 0.5 55.47-0.43 53.77-1.35 52.83-2.95 51.9-4.55 51.9-6.6L51.9-6.6Q51.9-8.68 52.81-10.16 53.72-11.65 55.26-12.64 56.8-13.63 58.7-14.21 60.6-14.8 62.63-15.06 64.67-15.33 66.55-15.35L66.55-15.35Q66.55-18.85 65.17-19.93 63.8-21 61.2-21L61.2-21Q59.82-21 58.26-20.58 56.7-20.15 54.75-18.8L54.75-18.8 54.1-22.45Q55.57-23.58 57.77-24.29 59.97-25 62.4-25L62.4-25Q65.5-25 67.4-23.91 69.3-22.83 70.17-20.25 71.05-17.68 71.05-13.25L71.05-13.25 71.05-8.25Q71.05-6.5 71.21-5.36 71.37-4.23 71.96-3.66 72.55-3.1 73.85-3.1L73.85-3.1 74.3-3.1 73.6 0.5 73.25 0.5Q71.07 0.5 69.88 0.08 68.7-0.35 68.07-1.15 67.45-1.95 66.95-3.1L66.95-3.1Q65.57-1.5 63.7-0.5 61.82 0.5 59.45 0.5ZM60.3-3.1L60.3-3.1Q62.1-3.1 63.78-4 65.47-4.9 66.55-6.4L66.55-6.4 66.55-12.25Q62.97-12.13 60.76-11.55 58.55-10.98 57.52-9.83 56.5-8.68 56.5-6.85L56.5-6.85Q56.5-4.88 57.56-3.99 58.62-3.1 60.3-3.1ZM87.54 0L82.49 0 72.59-35 77.59-35 84.99-6.15 93.54-34.3 98.54-34.3 107.09-6.15 114.49-35 119.49-35 109.59 0 104.54 0 96.04-28.15 87.54 0ZM126.44 0.5L126.44 0.5Q124.17 0.5 122.47-0.43 120.77-1.35 119.83-2.95 118.89-4.55 118.89-6.6L118.89-6.6Q118.89-8.68 119.8-10.16 120.72-11.65 122.25-12.64 123.79-13.63 125.69-14.21 127.59-14.8 129.63-15.06 131.67-15.33 133.54-15.35L133.54-15.35Q133.54-18.85 132.17-19.93 130.79-21 128.19-21L128.19-21Q126.82-21 125.25-20.58 123.69-20.15 121.74-18.8L121.74-18.8 121.09-22.45Q122.57-23.58 124.77-24.29 126.97-25 129.39-25L129.39-25Q132.49-25 134.39-23.91 136.29-22.83 137.17-20.25 138.04-17.68 138.04-13.25L138.04-13.25 138.04-8.25Q138.04-6.5 138.2-5.36 138.37-4.23 138.95-3.66 139.54-3.1 140.84-3.1L140.84-3.1 141.29-3.1 140.59 0.5 140.24 0.5Q138.07 0.5 136.88 0.08 135.69-0.35 135.07-1.15 134.44-1.95 133.94-3.1L133.94-3.1Q132.57-1.5 130.69-0.5 128.82 0.5 126.44 0.5ZM127.29-3.1L127.29-3.1Q129.09-3.1 130.78-4 132.47-4.9 133.54-6.4L133.54-6.4 133.54-12.25Q129.97-12.13 127.75-11.55 125.54-10.98 124.52-9.83 123.49-8.68 123.49-6.85L123.49-6.85Q123.49-4.88 124.55-3.99 125.62-3.1 127.29-3.1ZM152.49 0.5L151.04 0.5Q148.66 0.5 147.28-0.36 145.89-1.23 145.29-2.58 144.69-3.93 144.69-5.4L144.69-5.4 144.69-37.5 149.19-37.5 149.19-8Q149.19-5.9 149.46-4.85 149.74-3.8 150.58-3.45 151.41-3.1 153.14-3.1L153.14-3.1 152.49 0.5ZM164.29 0.5L162.84 0.5Q160.46 0.5 159.07-0.36 157.69-1.23 157.09-2.58 156.49-3.93 156.49-5.4L156.49-5.4 156.49-37.5 160.99-37.5 160.99-8Q160.99-5.9 161.26-4.85 161.54-3.8 162.37-3.45 163.21-3.1 164.94-3.1L164.94-3.1 164.29 0.5ZM179.83 0.5L179.83 0.5Q175.51 0.5 172.56-1.28 169.61-3.05 168.1-5.99 166.58-8.93 166.58-12.45L166.58-12.45Q166.58-15.88 168-18.73 169.41-21.58 172.1-23.29 174.78-25 178.58-25L178.58-25Q181.63-25 184.02-23.79 186.41-22.58 187.77-20.26 189.13-17.95 189.13-14.65L189.13-14.65Q189.13-14.13 189.1-13.51 189.06-12.9 188.93-12.25L188.93-12.25 171.18-12.25Q171.51-8.85 172.81-6.95 174.11-5.05 176.08-4.28 178.06-3.5 180.38-3.5L180.38-3.5Q182.08-3.5 183.93-3.85 185.78-4.2 187.43-4.95L187.43-4.95 188.03-1.4Q186.61-0.78 184.56-0.14 182.51 0.5 179.83 0.5ZM171.58-15.35L171.58-15.35 184.48-15.35Q184.48-17.07 183.83-18.35 183.18-19.63 181.86-20.31 180.53-21 178.48-21L178.48-21Q175.48-21 173.87-19.51 172.26-18.03 171.58-15.35ZM206.18 0.5L202.13 0.5Q199.81 0.5 198.41-0.35 197.01-1.2 196.37-2.54 195.73-3.88 195.73-5.35L195.73-5.35 195.73-21 191.53-21 191.93-24.5 195.73-24.5 195.73-30.55 200.23-31 200.23-24.5 206.68-24.5 206.68-21 200.23-21 200.23-8.1Q200.23-5.75 200.51-4.7 200.78-3.65 201.87-3.38 202.96-3.1 205.38-3.1L205.38-3.1 206.53-3.1 206.18 0.5Z" opacity="1" transform="matrix(1,0,0,1,0,0)" fill="#ffffff" class="wordmark-text-0" data-fill-palette-color="primary" id="text-0"></path></svg></g></svg></g></svg></g></svg></g><g><svg viewBox="0 0 179.12490599628097 179.12490599628097" height="179.12490599628097" width="179.12490599628097"><g><svg></svg></g><g id="icon-0"><svg viewBox="0 0 179.12490599628097 179.12490599628097" height="179.12490599628097" width="179.12490599628097"><g><path d="M0 89.562c0-49.464 40.098-89.562 89.562-89.562 49.464 0 89.562 40.098 89.563 89.562 0 49.464-40.098 89.562-89.563 89.563-49.464 0-89.562-40.098-89.562-89.563zM89.562 172.491c45.8 0 82.928-37.128 82.929-82.929 0-45.8-37.128-82.928-82.929-82.928-45.8 0-82.928 37.128-82.928 82.928 0 45.8 37.128 82.928 82.928 82.929z" data-fill-palette-color="accent" fill="#ffffff" stroke="transparent"></path><ellipse rx="88.66682846815908" ry="88.66682846815908" cx="89.56245299814049" cy="89.56245299814049" fill="#ffffff" stroke="transparent" stroke-width="0" fill-opacity="1" data-fill-palette-color="accent"></ellipse></g><g transform="matrix(1,0,0,1,37.73282629370407,40.374759287371155)"><svg viewBox="0 0 103.65925340887283 98.37538742153866" height="98.37538742153866" width="103.65925340887283"><g><svg xmlns:x="http://ns.adobe.com/Extensibility/1.0/" xmlns:i="http://ns.adobe.com/AdobeIllustrator/10.0/" xmlns:graph="http://ns.adobe.com/Graphs/1.0/" xmlns="http://www.w3.org/2000/svg" xmlns:xlink="http://www.w3.org/1999/xlink" xmlns:a="http://ns.adobe.com/AdobeSVGViewerExtensions/3.0/" version="1.1" baseProfile="basic" x="0" y="0" viewBox="4.999999999999963 7 90.28198073584075 85.68" xml:space="preserve" height="98.37538742153866" width="103.65925340887283" class="icon-z$-0" data-fill-palette-color="quaternary" id="z$-0"><g fill="#45b5c4" data-fill-palette-color="quaternary"><g fill="#45b5c4" data-fill-palette-color="quaternary"><path fill-rule="evenodd" clip-rule="evenodd" d="M27.8 7c0.08 0 0.16 0 0.24 0 3.782 8.218 8.224 15.776 12 24 6.381-0.5 13.83 0.07 20.16-0.48C64.254 22.813 68.174 14.973 71.96 7c0.08 0 0.16 0 0.24 0 7.237 17.172 21.862 33.197 23.04 56.16 0.241 4.696-0.587 8.264-1.68 12.24-4.015 0.306-9.261-0.621-12.48 0.479 1.035 1.296 3.424 0.721 5.521 0.721 2.093 0 4.413 0 6.239 0-0.838 2.361-2.18 4.22-3.84 5.76-3.039-0.208-6.306-2.591-8.88-1.681 1.859 1.661 5.277 1.764 7.92 2.641-1.594 1.446-3.442 2.638-5.52 3.6-1.924-0.636-2.944-2.176-5.04-2.64-0.549 1.868 2.394 1.999 3.359 3.12-8.327 4.393-19.208 1.431-24-5.04-0.794-1.073-1.03-2.364-1.439-3.36-2.436 3.593-5.646 6.279-10.32 8.641-6.24 3.151-11.692 4.345-18.96 1.199 2.201-1.959 5.494-2.825 7.44-5.04-2.929-0.438-6.17 3.498-9.36 4.561-2.765-1.155-5.445-2.395-7.92-3.84 4.169-2.231 10.464-2.337 14.4-4.801-0.732-1.116-2.44-0.08-3.6 0.24-3.561 0.982-8.259 2.354-12 3.36-3.046-1.754-5.072-4.528-6.96-7.44 6.196-0.872 14.938 0.549 21.12-0.72-0.593-1.306-3.322-0.72-5.04-0.72-5.187 0-11.452 0-16.8 0-1.154-2.446-1.785-5.415-2.4-8.4 0-2.32 0-4.64 0-6.96C8.612 37.732 20.173 24.333 27.8 7zM15.08 35.32c5.439-3.361 12.757-4.843 21.36-5.04-2.758-7.242-5.683-14.318-9.12-20.88C23.27 18.07 18.997 26.517 15.08 35.32zM63.08 30.28c8.713 0.007 16.575 2.145 21.6 5.04-4.483-8.396-8.175-17.584-12.72-25.92C68.947 16.149 65.377 23.614 63.08 30.28zM32.36 61.96c4.751-0.141 4.103-16.594-0.72-15.12C27.843 48.001 28.048 62.088 32.36 61.96zM72.92 59.8c4.796-0.21 4.04-14.687-0.96-12.96C68.407 48.067 68.26 60.004 72.92 59.8zM55.64 78.04c2.686-5.315 5.897-10.104 8.641-15.36-5.681 0.16-12-0.319-17.28 0.24C50.132 67.708 52.521 73.24 55.64 78.04z" fill="#45b5c4" data-fill-palette-color="quaternary"></path><path fill-rule="evenodd" clip-rule="evenodd" d="M47 92.68c-3.04 0-6.08 0-9.12 0 5.233-1.309 9.748-3.471 13.681-6.479 0.828-0.634 3.181-3.151 3.6-3.12-0.026-0.002 2.421 2.446 2.64 2.64 3.234 2.859 6.17 4.809 10.32 6C61.367 92.327 53.867 92.188 47 92.68z" fill="#45b5c4" data-fill-palette-color="quaternary"></path></g></g></svg></g></svg></g></svg></g></svg></g></svg></g><defs></defs></svg><rect width="395.52" height="116.26162722398033" fill="none" stroke="none" visibility="hidden"></rect></g></svg></g></svg>