<svg xmlns="http://www.w3.org/2000/svg" xmlns:xlink="http://www.w3.org/1999/xlink" width="389" zoomAndPan="magnify" viewBox="0 0 291.75 56.249996" height="75" preserveAspectRatio="xMidYMid meet" version="1.0"><defs><clipPath id="d601b2c506"><path d="M 2.28125 0.714844 L 288.425781 0.714844 L 288.425781 54.648438 L 2.28125 54.648438 Z M 2.28125 0.714844 " clip-rule="nonzero"/></clipPath></defs><g clip-path="url(#d601b2c506)"><path fill="#ffffff" d="M 5.933594 53.9375 L -1.152344 53.9375 L 5.511719 4.226562 L 11.25 4.226562 L 24.292969 28.871094 L 37.191406 4.226562 L 43.003906 4.226562 L 49.59375 53.9375 L 42.507812 53.9375 L 37.472656 13.386719 L 39.246094 13.671875 L 24.363281 42.148438 L 9.195312 13.671875 L 10.96875 13.386719 Z M 62.988281 53.9375 L 56.609375 53.9375 L 56.609375 19.140625 L 62.988281 19.140625 Z M 62.988281 11.328125 L 56.609375 11.328125 L 56.609375 4.226562 L 62.988281 4.226562 Z M 79.714844 54.648438 C 77.558594 54.648438 75.679688 54.207031 74.074219 53.328125 C 72.46875 52.457031 71.21875 51.261719 70.332031 49.746094 C 69.453125 48.234375 69.011719 46.503906 69.011719 44.5625 C 69.011719 42.59375 69.441406 40.910156 70.304688 39.507812 C 71.164062 38.097656 72.320312 36.921875 73.777344 35.984375 C 75.230469 35.046875 76.855469 34.304688 78.652344 33.753906 C 80.445312 33.195312 82.304688 32.792969 84.222656 32.546875 C 86.148438 32.292969 88.003906 32.15625 89.777344 32.136719 C 89.777344 28.820312 89.125 26.652344 87.824219 25.632812 C 86.527344 24.617188 84.652344 24.113281 82.195312 24.113281 C 80.890625 24.113281 79.503906 24.308594 78.027344 24.707031 C 76.554688 25.113281 74.894531 25.957031 73.054688 27.234375 L 72.132812 22.050781 C 73.519531 20.980469 75.253906 20.109375 77.332031 19.4375 C 79.414062 18.765625 81.601562 18.429688 83.894531 18.429688 C 86.824219 18.429688 89.1875 18.945312 90.984375 19.976562 C 92.78125 21 94.089844 22.734375 94.910156 25.175781 C 95.742188 27.609375 96.15625 30.925781 96.15625 35.117188 L 96.15625 42.21875 C 96.15625 43.878906 96.234375 45.246094 96.382812 46.324219 C 96.535156 47.394531 96.890625 48.199219 97.449219 48.738281 C 98.003906 49.269531 98.898438 49.535156 100.125 49.535156 L 100.765625 49.535156 L 99.773438 54.648438 L 99.277344 54.648438 C 97.214844 54.648438 95.625 54.449219 94.5 54.050781 C 93.382812 53.644531 92.527344 53.0625 91.933594 52.304688 C 91.347656 51.546875 90.820312 50.625 90.347656 49.535156 C 89.042969 51.050781 87.507812 52.28125 85.738281 53.226562 C 83.960938 54.175781 81.953125 54.648438 79.714844 54.648438 Z M 80.917969 49.535156 C 82.621094 49.535156 84.265625 49.109375 85.851562 48.257812 C 87.449219 47.402344 88.757812 46.269531 89.777344 44.847656 L 89.777344 36.539062 C 86.394531 36.652344 83.660156 36.984375 81.570312 37.53125 C 79.484375 38.074219 77.953125 38.886719 76.980469 39.976562 C 76.015625 41.066406 75.535156 42.476562 75.535156 44.207031 C 75.535156 46.074219 76.035156 47.429688 77.035156 48.269531 C 78.039062 49.113281 79.332031 49.535156 80.917969 49.535156 Z M 119.53125 53.9375 L 112.375 53.9375 L 98.339844 4.226562 L 105.429688 4.226562 L 115.917969 45.203125 L 128.035156 5.222656 L 135.125 5.222656 L 147.242188 45.203125 L 157.734375 4.226562 L 164.820312 4.226562 L 150.785156 53.9375 L 143.628906 53.9375 L 131.582031 13.957031 Z M 174.671875 54.648438 C 172.527344 54.648438 170.652344 54.207031 169.042969 53.328125 C 167.4375 52.457031 166.191406 51.261719 165.300781 49.746094 C 164.414062 48.234375 163.96875 46.503906 163.96875 44.5625 C 163.96875 42.59375 164.398438 40.910156 165.257812 39.507812 C 166.128906 38.097656 167.285156 36.921875 168.730469 35.984375 C 170.1875 35.046875 171.8125 34.304688 173.609375 33.753906 C 175.402344 33.195312 177.265625 32.792969 179.191406 32.546875 C 181.121094 32.292969 182.96875 32.15625 184.734375 32.136719 C 184.734375 28.820312 184.089844 26.652344 182.792969 25.632812 C 181.488281 24.617188 179.609375 24.113281 177.152344 24.113281 C 175.859375 24.113281 174.46875 24.308594 172.984375 24.707031 C 171.511719 25.113281 169.851562 25.957031 168.007812 27.234375 L 167.089844 22.050781 C 168.488281 20.980469 170.226562 20.109375 172.304688 19.4375 C 174.382812 18.765625 176.566406 18.429688 178.851562 18.429688 C 181.78125 18.429688 184.144531 18.945312 185.941406 19.976562 C 187.734375 21 189.050781 22.734375 189.882812 25.175781 C 190.703125 27.609375 191.113281 30.925781 191.113281 35.117188 L 191.113281 42.21875 C 191.113281 43.878906 191.191406 45.246094 191.339844 46.324219 C 191.5 47.394531 191.855469 48.199219 192.402344 48.738281 C 192.960938 49.269531 193.855469 49.535156 195.082031 49.535156 L 195.722656 49.535156 L 194.730469 54.648438 L 194.234375 54.648438 C 192.183594 54.648438 190.59375 54.449219 189.46875 54.050781 C 188.34375 53.644531 187.492188 53.0625 186.90625 52.304688 C 186.308594 51.546875 185.773438 50.625 185.300781 49.535156 C 184.007812 51.050781 182.472656 52.28125 180.695312 53.226562 C 178.929688 54.175781 176.921875 54.648438 174.671875 54.648438 Z M 175.875 49.535156 C 177.578125 49.535156 179.226562 49.109375 180.824219 48.257812 C 182.421875 47.402344 183.722656 46.269531 184.734375 44.847656 L 184.734375 36.539062 C 181.363281 36.652344 178.625 36.984375 176.527344 37.53125 C 174.441406 38.074219 172.914062 38.886719 171.949219 39.976562 C 170.976562 41.066406 170.488281 42.476562 170.488281 44.207031 C 170.488281 46.074219 170.992188 47.429688 171.992188 48.269531 C 173.003906 49.113281 174.296875 49.535156 175.875 49.535156 Z M 211.597656 54.648438 L 209.542969 54.648438 C 207.292969 54.648438 205.515625 54.242188 204.210938 53.425781 C 202.898438 52.601562 201.957031 51.550781 201.390625 50.273438 C 200.824219 48.996094 200.539062 47.660156 200.539062 46.269531 L 200.539062 0.675781 L 206.917969 0.675781 L 206.917969 42.574219 C 206.917969 44.5625 207.046875 46.054688 207.300781 47.050781 C 207.566406 48.042969 208.09375 48.707031 208.890625 49.039062 C 209.671875 49.367188 210.882812 49.535156 212.519531 49.535156 Z M 228.324219 54.648438 L 226.269531 54.648438 C 224.019531 54.648438 222.238281 54.242188 220.921875 53.425781 C 219.621094 52.601562 218.683594 51.550781 218.117188 50.273438 C 217.550781 48.996094 217.265625 47.660156 217.265625 46.269531 L 217.265625 0.675781 L 223.644531 0.675781 L 223.644531 42.574219 C 223.644531 44.5625 223.773438 46.054688 224.027344 47.050781 C 224.292969 48.042969 224.816406 48.707031 225.601562 49.039062 C 226.394531 49.367188 227.609375 49.535156 229.246094 49.535156 Z M 250.351562 54.648438 C 246.269531 54.648438 242.832031 53.804688 240.046875 52.121094 C 237.257812 50.445312 235.152344 48.214844 233.722656 45.429688 C 232.289062 42.644531 231.570312 39.585938 231.570312 36.253906 C 231.570312 33.007812 232.238281 30.035156 233.582031 27.335938 C 234.914062 24.636719 236.851562 22.476562 239.394531 20.859375 C 241.925781 19.238281 244.988281 18.429688 248.578125 18.429688 C 251.460938 18.429688 254.03125 19.003906 256.289062 20.148438 C 258.546875 21.292969 260.320312 22.964844 261.605469 25.164062 C 262.890625 27.351562 263.53125 30.003906 263.53125 33.128906 C 263.53125 33.621094 263.519531 34.164062 263.492188 34.75 C 263.453125 35.328125 263.371094 35.921875 263.25 36.539062 L 238.089844 36.539062 C 238.402344 39.757812 239.171875 42.265625 240.398438 44.066406 C 241.628906 45.867188 243.171875 47.128906 245.035156 47.859375 C 246.90625 48.597656 248.9375 48.964844 251.128906 48.964844 C 252.738281 48.964844 254.414062 48.800781 256.164062 48.46875 C 257.910156 48.136719 259.5625 47.617188 261.125 46.90625 L 261.972656 51.949219 C 260.632812 52.535156 258.992188 53.132812 257.054688 53.738281 C 255.117188 54.34375 252.882812 54.648438 250.351562 54.648438 Z M 238.65625 32.136719 L 256.941406 32.136719 C 256.941406 30.507812 256.632812 29.085938 256.019531 27.875 C 255.40625 26.664062 254.476562 25.734375 253.226562 25.089844 C 251.972656 24.4375 250.375 24.113281 248.4375 24.113281 C 245.601562 24.113281 243.421875 24.816406 241.902344 26.226562 C 240.382812 27.628906 239.300781 29.597656 238.65625 32.136719 Z M 287.699219 54.648438 L 281.960938 54.648438 C 279.769531 54.648438 278.011719 54.246094 276.6875 53.441406 C 275.363281 52.636719 274.398438 51.597656 273.796875 50.328125 C 273.191406 49.0625 272.886719 47.730469 272.886719 46.339844 L 272.886719 24.113281 L 266.933594 24.113281 L 267.5 19.140625 L 272.886719 19.140625 L 272.886719 10.546875 L 279.265625 9.910156 L 279.265625 19.140625 L 288.410156 19.140625 L 288.410156 24.113281 L 279.265625 24.113281 L 279.265625 42.433594 C 279.265625 44.660156 279.398438 46.269531 279.664062 47.261719 C 279.917969 48.257812 280.5625 48.882812 281.589844 49.136719 C 282.621094 49.402344 284.28125 49.535156 286.566406 49.535156 L 288.195312 49.535156 Z M 287.699219 54.648438 " fill-opacity="1" fill-rule="nonzero"/><path fill="#ffffff" d="M 5.933594 53.9375 L -1.152344 53.9375 L 5.511719 4.226562 L 11.25 4.226562 L 24.292969 28.871094 L 37.191406 4.226562 L 43.003906 4.226562 L 49.59375 53.9375 L 42.507812 53.9375 L 37.472656 13.386719 L 39.246094 13.671875 L 24.363281 42.148438 L 9.195312 13.671875 L 10.96875 13.386719 Z M 62.988281 53.9375 L 56.609375 53.9375 L 56.609375 19.140625 L 62.988281 19.140625 Z M 62.988281 11.328125 L 56.609375 11.328125 L 56.609375 4.226562 L 62.988281 4.226562 Z M 79.714844 54.648438 C 77.558594 54.648438 75.679688 54.207031 74.074219 53.328125 C 72.46875 52.457031 71.21875 51.261719 70.332031 49.746094 C 69.453125 48.234375 69.011719 46.503906 69.011719 44.5625 C 69.011719 42.59375 69.441406 40.910156 70.304688 39.507812 C 71.164062 38.097656 72.320312 36.921875 73.777344 35.984375 C 75.230469 35.046875 76.855469 34.304688 78.652344 33.753906 C 80.445312 33.195312 82.304688 32.792969 84.222656 32.546875 C 86.148438 32.292969 88.003906 32.15625 89.777344 32.136719 C 89.777344 28.820312 89.125 26.652344 87.824219 25.632812 C 86.527344 24.617188 84.652344 24.113281 82.195312 24.113281 C 80.890625 24.113281 79.503906 24.308594 78.027344 24.707031 C 76.554688 25.113281 74.894531 25.957031 73.054688 27.234375 L 72.132812 22.050781 C 73.519531 20.980469 75.253906 20.109375 77.332031 19.4375 C 79.414062 18.765625 81.601562 18.429688 83.894531 18.429688 C 86.824219 18.429688 89.1875 18.945312 90.984375 19.976562 C 92.78125 21 94.089844 22.734375 94.910156 25.175781 C 95.742188 27.609375 96.15625 30.925781 96.15625 35.117188 L 96.15625 42.21875 C 96.15625 43.878906 96.234375 45.246094 96.382812 46.324219 C 96.535156 47.394531 96.890625 48.199219 97.449219 48.738281 C 98.003906 49.269531 98.898438 49.535156 100.125 49.535156 L 100.765625 49.535156 L 99.773438 54.648438 L 99.277344 54.648438 C 97.214844 54.648438 95.625 54.449219 94.5 54.050781 C 93.382812 53.644531 92.527344 53.0625 91.933594 52.304688 C 91.347656 51.546875 90.820312 50.625 90.347656 49.535156 C 89.042969 51.050781 87.507812 52.28125 85.738281 53.226562 C 83.960938 54.175781 81.953125 54.648438 79.714844 54.648438 Z M 80.917969 49.535156 C 82.621094 49.535156 84.265625 49.109375 85.851562 48.257812 C 87.449219 47.402344 88.757812 46.269531 89.777344 44.847656 L 89.777344 36.539062 C 86.394531 36.652344 83.660156 36.984375 81.570312 37.53125 C 79.484375 38.074219 77.953125 38.886719 76.980469 39.976562 C 76.015625 41.066406 75.535156 42.476562 75.535156 44.207031 C 75.535156 46.074219 76.035156 47.429688 77.035156 48.269531 C 78.039062 49.113281 79.332031 49.535156 80.917969 49.535156 Z M 119.53125 53.9375 L 112.375 53.9375 L 98.339844 4.226562 L 105.429688 4.226562 L 115.917969 45.203125 L 128.035156 5.222656 L 135.125 5.222656 L 147.242188 45.203125 L 157.734375 4.226562 L 164.820312 4.226562 L 150.785156 53.9375 L 143.628906 53.9375 L 131.582031 13.957031 Z M 174.671875 54.648438 C 172.527344 54.648438 170.652344 54.207031 169.042969 53.328125 C 167.4375 52.457031 166.191406 51.261719 165.300781 49.746094 C 164.414062 48.234375 163.96875 46.503906 163.96875 44.5625 C 163.96875 42.59375 164.398438 40.910156 165.257812 39.507812 C 166.128906 38.097656 167.285156 36.921875 168.730469 35.984375 C 170.1875 35.046875 171.8125 34.304688 173.609375 33.753906 C 175.402344 33.195312 177.265625 32.792969 179.191406 32.546875 C 181.121094 32.292969 182.96875 32.15625 184.734375 32.136719 C 184.734375 28.820312 184.089844 26.652344 182.792969 25.632812 C 181.488281 24.617188 179.609375 24.113281 177.152344 24.113281 C 175.859375 24.113281 174.46875 24.308594 172.984375 24.707031 C 171.511719 25.113281 169.851562 25.957031 168.007812 27.234375 L 167.089844 22.050781 C 168.488281 20.980469 170.226562 20.109375 172.304688 19.4375 C 174.382812 18.765625 176.566406 18.429688 178.851562 18.429688 C 181.78125 18.429688 184.144531 18.945312 185.941406 19.976562 C 187.734375 21 189.050781 22.734375 189.882812 25.175781 C 190.703125 27.609375 191.113281 30.925781 191.113281 35.117188 L 191.113281 42.21875 C 191.113281 43.878906 191.191406 45.246094 191.339844 46.324219 C 191.5 47.394531 191.855469 48.199219 192.402344 48.738281 C 192.960938 49.269531 193.855469 49.535156 195.082031 49.535156 L 195.722656 49.535156 L 194.730469 54.648438 L 194.234375 54.648438 C 192.183594 54.648438 190.59375 54.449219 189.46875 54.050781 C 188.34375 53.644531 187.492188 53.0625 186.90625 52.304688 C 186.308594 51.546875 185.773438 50.625 185.300781 49.535156 C 184.007812 51.050781 182.472656 52.28125 180.695312 53.226562 C 178.929688 54.175781 176.921875 54.648438 174.671875 54.648438 Z M 175.875 49.535156 C 177.578125 49.535156 179.226562 49.109375 180.824219 48.257812 C 182.421875 47.402344 183.722656 46.269531 184.734375 44.847656 L 184.734375 36.539062 C 181.363281 36.652344 178.625 36.984375 176.527344 37.53125 C 174.441406 38.074219 172.914062 38.886719 171.949219 39.976562 C 170.976562 41.066406 170.488281 42.476562 170.488281 44.207031 C 170.488281 46.074219 170.992188 47.429688 171.992188 48.269531 C 173.003906 49.113281 174.296875 49.535156 175.875 49.535156 Z M 211.597656 54.648438 L 209.542969 54.648438 C 207.292969 54.648438 205.515625 54.242188 204.210938 53.425781 C 202.898438 52.601562 201.957031 51.550781 201.390625 50.273438 C 200.824219 48.996094 200.539062 47.660156 200.539062 46.269531 L 200.539062 0.675781 L 206.917969 0.675781 L 206.917969 42.574219 C 206.917969 44.5625 207.046875 46.054688 207.300781 47.050781 C 207.566406 48.042969 208.09375 48.707031 208.890625 49.039062 C 209.671875 49.367188 210.882812 49.535156 212.519531 49.535156 Z M 228.324219 54.648438 L 226.269531 54.648438 C 224.019531 54.648438 222.238281 54.242188 220.921875 53.425781 C 219.621094 52.601562 218.683594 51.550781 218.117188 50.273438 C 217.550781 48.996094 217.265625 47.660156 217.265625 46.269531 L 217.265625 0.675781 L 223.644531 0.675781 L 223.644531 42.574219 C 223.644531 44.5625 223.773438 46.054688 224.027344 47.050781 C 224.292969 48.042969 224.816406 48.707031 225.601562 49.039062 C 226.394531 49.367188 227.609375 49.535156 229.246094 49.535156 Z M 250.351562 54.648438 C 246.269531 54.648438 242.832031 53.804688 240.046875 52.121094 C 237.257812 50.445312 235.152344 48.214844 233.722656 45.429688 C 232.289062 42.644531 231.570312 39.585938 231.570312 36.253906 C 231.570312 33.007812 232.238281 30.035156 233.582031 27.335938 C 234.914062 24.636719 236.851562 22.476562 239.394531 20.859375 C 241.925781 19.238281 244.988281 18.429688 248.578125 18.429688 C 251.460938 18.429688 254.03125 19.003906 256.289062 20.148438 C 258.546875 21.292969 260.320312 22.964844 261.605469 25.164062 C 262.890625 27.351562 263.53125 30.003906 263.53125 33.128906 C 263.53125 33.621094 263.519531 34.164062 263.492188 34.75 C 263.453125 35.328125 263.371094 35.921875 263.25 36.539062 L 238.089844 36.539062 C 238.402344 39.757812 239.171875 42.265625 240.398438 44.066406 C 241.628906 45.867188 243.171875 47.128906 245.035156 47.859375 C 246.90625 48.597656 248.9375 48.964844 251.128906 48.964844 C 252.738281 48.964844 254.414062 48.800781 256.164062 48.46875 C 257.910156 48.136719 259.5625 47.617188 261.125 46.90625 L 261.972656 51.949219 C 260.632812 52.535156 258.992188 53.132812 257.054688 53.738281 C 255.117188 54.34375 252.882812 54.648438 250.351562 54.648438 Z M 238.65625 32.136719 L 256.941406 32.136719 C 256.941406 30.507812 256.632812 29.085938 256.019531 27.875 C 255.40625 26.664062 254.476562 25.734375 253.226562 25.089844 C 251.972656 24.4375 250.375 24.113281 248.4375 24.113281 C 245.601562 24.113281 243.421875 24.816406 241.902344 26.226562 C 240.382812 27.628906 239.300781 29.597656 238.65625 32.136719 Z M 287.699219 54.648438 L 281.960938 54.648438 C 279.769531 54.648438 278.011719 54.246094 276.6875 53.441406 C 275.363281 52.636719 274.398438 51.597656 273.796875 50.328125 C 273.191406 49.0625 272.886719 47.730469 272.886719 46.339844 L 272.886719 24.113281 L 266.933594 24.113281 L 267.5 19.140625 L 272.886719 19.140625 L 272.886719 10.546875 L 279.265625 9.910156 L 279.265625 19.140625 L 288.410156 19.140625 L 288.410156 24.113281 L 279.265625 24.113281 L 279.265625 42.433594 C 279.265625 44.660156 279.398438 46.269531 279.664062 47.261719 C 279.917969 48.257812 280.5625 48.882812 281.589844 49.136719 C 282.621094 49.402344 284.28125 49.535156 286.566406 49.535156 L 288.195312 49.535156 Z M 287.699219 54.648438 " fill-opacity="1" fill-rule="nonzero"/></g></svg>